<svg width="156" height="54" viewBox="0 0 156 54" fill="none" xmlns="http://www.w3.org/2000/svg">
<path d="M0.335938 41V4.8125H5.77344C8.19531 4.8125 10.125 5 11.5625 5.375C13.0156 5.75 14.2422 6.38281 15.2422 7.27344C16.2578 8.19531 17.0625 9.34375 17.6562 10.7188C18.2656 12.1094 18.5703 13.5156 18.5703 14.9375C18.5703 17.5312 17.5781 19.7266 15.5938 21.5234C17.5156 22.1797 19.0312 23.3281 20.1406 24.9688C21.2656 26.5938 21.8281 28.4844 21.8281 30.6406C21.8281 33.4688 20.8281 35.8594 18.8281 37.8125C17.625 39.0156 16.2734 39.8516 14.7734 40.3203C13.1328 40.7734 11.0781 41 8.60938 41H0.335938ZM5.79688 20.3516H7.50781C9.53906 20.3516 11.0234 19.9062 11.9609 19.0156C12.9141 18.1094 13.3906 16.7812 13.3906 15.0312C13.3906 13.3281 12.9062 12.0391 11.9375 11.1641C10.9688 10.2734 9.5625 9.82812 7.71875 9.82812H5.79688V20.3516ZM5.79688 35.8672H9.17188C11.6406 35.8672 13.4531 35.3828 14.6094 34.4141C15.8281 33.3672 16.4375 32.0391 16.4375 30.4297C16.4375 28.8672 15.8516 27.5547 14.6797 26.4922C13.5391 25.4453 11.5 24.9219 8.5625 24.9219H5.79688V35.8672ZM33.0078 18.1719V31.2734C33.0078 35.0547 34.5 36.9453 37.4844 36.9453C40.4688 36.9453 41.9609 35.0547 41.9609 31.2734V18.1719H47.2344V31.3906C47.2344 33.2188 47.0078 34.7969 46.5547 36.125C46.1172 37.3125 45.3594 38.3828 44.2812 39.3359C42.5 40.8828 40.2344 41.6562 37.4844 41.6562C34.75 41.6562 32.4922 40.8828 30.7109 39.3359C29.6172 38.3828 28.8438 37.3125 28.3906 36.125C27.9531 35.0625 27.7344 33.4844 27.7344 31.3906V18.1719H33.0078ZM59.1641 18.1719V41H53.8906V18.1719H59.1641ZM53.0938 8.67969C53.0938 7.75781 53.4297 6.96094 54.1016 6.28906C54.7734 5.61719 55.5781 5.28125 56.5156 5.28125C57.4688 5.28125 58.2812 5.61719 58.9531 6.28906C59.625 6.94531 59.9609 7.75 59.9609 8.70312C59.9609 9.65625 59.625 10.4688 58.9531 11.1406C58.2969 11.8125 57.4922 12.1484 56.5391 12.1484C55.5859 12.1484 54.7734 11.8125 54.1016 11.1406C53.4297 10.4688 53.0938 9.64844 53.0938 8.67969ZM71.1172 1.41406V41H65.8438V1.41406H71.1172ZM94.625 1.41406H99.9219V41H94.625V38.6094C92.5469 40.6406 90.1953 41.6562 87.5703 41.6562C84.4453 41.6562 81.8516 40.5156 79.7891 38.2344C77.7422 35.9062 76.7188 33 76.7188 29.5156C76.7188 26.1094 77.7422 23.2656 79.7891 20.9844C81.8203 18.6875 84.375 17.5391 87.4531 17.5391C90.125 17.5391 92.5156 18.6328 94.625 20.8203V1.41406ZM82.1094 29.5156C82.1094 31.7031 82.6953 33.4844 83.8672 34.8594C85.0703 36.25 86.5859 36.9453 88.4141 36.9453C90.3672 36.9453 91.9453 36.2734 93.1484 34.9297C94.3516 33.5391 94.9531 31.7734 94.9531 29.6328C94.9531 27.4922 94.3516 25.7266 93.1484 24.3359C91.9453 22.9766 90.3828 22.2969 88.4609 22.2969C86.6484 22.2969 85.1328 22.9844 83.9141 24.3594C82.7109 25.75 82.1094 27.4688 82.1094 29.5156ZM111.852 18.1719V41H106.578V18.1719H111.852ZM105.781 8.67969C105.781 7.75781 106.117 6.96094 106.789 6.28906C107.461 5.61719 108.266 5.28125 109.203 5.28125C110.156 5.28125 110.969 5.61719 111.641 6.28906C112.312 6.94531 112.648 7.75 112.648 8.70312C112.648 9.65625 112.312 10.4688 111.641 11.1406C110.984 11.8125 110.18 12.1484 109.227 12.1484C108.273 12.1484 107.461 11.8125 106.789 11.1406C106.117 10.4688 105.781 9.64844 105.781 8.67969ZM123.992 23.0938V41H118.695V23.0938H116.82V18.1719H118.695V9.35938C118.695 6.48438 119.195 4.45313 120.195 3.26562C121.57 1.60937 123.57 0.78125 126.195 0.78125C127.133 0.78125 128.312 1.05469 129.734 1.60156V6.99219L129.195 6.71094C128.055 6.13281 127.117 5.84375 126.383 5.84375C125.445 5.84375 124.812 6.17969 124.484 6.85156C124.156 7.50781 123.992 8.77344 123.992 10.6484V18.1719H129.734V23.0938H123.992ZM139.977 36.7578L129.711 18.1719H135.828L142.812 31.2969L149.328 18.1719H155.281L137.094 53.4219H131.07L139.977 36.7578Z" fill="url(#paint0_linear)"/>
<defs>
<linearGradient id="paint0_linear" x1="-4" y1="22" x2="156" y2="22" gradientUnits="userSpaceOnUse">
<stop stop-color="#E9B7CE"/>
<stop offset="1" stop-color="#D3F3F1"/>
</linearGradient>
</defs>
</svg>
